<?xml version="1.0" encoding="utf-8"?>
<!-- Generator: Adobe Illustrator 24.1.2, SVG Export Plug-In . SVG Version: 6.00 Build 0)  -->
<svg version="1.1" id="Layer_1" xmlns="http://www.w3.org/2000/svg" xmlns:xlink="http://www.w3.org/1999/xlink" x="0px" y="0px"
	 viewBox="0 0 900 900" style="enable-background:new 0 0 900 900;" xml:space="preserve">
<style type="text/css">
	.st0{fill:#C1272D;}
</style>
<g>
	<g>
		<path d="M366.47,195.99c-0.89,0.59-2.18-0.1-2.13-1.18c-0.15,0.35-0.29,0.71-0.44,1.06c11.73-14.63,28.6-24.39,46.79-28.52
			c17.96-4.08,37.43-2.73,54.26,4.97c20.47,9.36,35.38,27.38,47.57,45.74c13.22,19.91,23.98,41.79,28.81,65.33
			c4.69,22.85,3.42,47.55-6.26,69c-1.17,2.6-2.47,5.14-3.87,7.62c-0.95,1.68,1.64,3.2,2.59,1.51c12.36-21.88,15.4-47.92,11.58-72.53
			c-3.92-25.25-14.98-48.95-28.81-70.23c-12.72-19.57-28.38-39.09-50.1-49.02c-18.12-8.29-38.97-9.63-58.24-4.88
			c-9.67,2.39-19,6.33-27.36,11.75c-4.15,2.69-8.08,5.74-11.68,9.13c-1.82,1.71-3.57,3.51-5.21,5.4c-0.75,0.85-1.53,1.71-2.2,2.63
			c-0.8,1.11-0.41,2.59,0.37,3.62c1.34,1.77,3.92,2.48,5.84,1.22C369.59,197.52,368.09,194.92,366.47,195.99L366.47,195.99z"/>
	</g>
</g>
<g>
	<g>
		<path d="M354.83,207.39c-13.19,14.27-23.27,31.11-34.07,47.18c-11,16.38-22.24,32.61-33.72,48.67
			c-11.47,16.06-23.18,31.95-35.11,47.67c-12,15.81-24.23,31.43-36.69,46.88c-12.39,15.36-25,30.55-37.83,45.55
			c-1.58,1.85-3.17,3.7-4.76,5.55c-0.87,1.01-0.27,2.46,1.06,2.56c16.1,1.16,32.25,1.55,48.39,1.15c16.21-0.4,32.41-1.59,48.5-3.56
			c16.01-1.95,31.92-4.65,47.67-8.11c15.77-3.46,31.37-7.68,46.73-12.64c15.41-4.98,30.58-10.71,45.44-17.15
			c1.82-0.79,3.63-1.59,5.43-2.4c1.76-0.79,0.24-3.37-1.51-2.59c-14.69,6.57-29.69,12.42-44.95,17.53
			c-15.23,5.1-30.71,9.47-46.36,13.1c-15.59,3.61-31.36,6.49-47.23,8.6c-15.93,2.11-31.95,3.47-48.01,4.05
			c-16.05,0.58-32.14,0.39-48.17-0.58c-1.98-0.12-3.95-0.25-5.93-0.4c0.35,0.85,0.71,1.71,1.06,2.56
			c12.93-15.01,25.65-30.21,38.14-45.59c12.42-15.3,24.62-30.78,36.6-46.43c12-15.67,23.77-31.52,35.3-47.53
			c11.58-16.08,22.93-32.32,34.05-48.73c5.47-8.08,10.85-16.23,16.26-24.35c5.37-8.07,10.88-16.08,17.11-23.51
			c1.53-1.82,3.1-3.61,4.71-5.35C358.26,208.09,356.14,205.97,354.83,207.39L354.83,207.39z"/>
	</g>
</g>
<g>
	<g>
		<path d="M407.15,211.91c12.71-10.66,28.26-17.76,44.59-20.58c4.61-0.8,9.28-1.22,13.97-1.31c-0.13-0.98-0.27-1.96-0.4-2.95
			c-4.98,1.5-7.84,6.09-9.39,10.79c-1.76,5.36-1.7,11.46-4.96,16.26c-2.92,4.29-8.12,5.99-13.01,6.78
			c-2.51,0.41-5.05,0.57-7.59,0.69c-3.14,0.15-6.38,0.35-9.45-0.47c-6.13-1.64-9.59-7.76-14.75-11.04
			c-1.46-0.93-2.99,1.15-1.82,2.36c2.28,2.35,4.17,4.98,5.7,7.88c0.79-0.61,1.57-1.21,2.36-1.82c-0.62-0.51-1.24-1.03-1.85-1.54
			c-1.47-1.23-3.61,0.89-2.12,2.12c0.62,0.51,1.24,1.03,1.85,1.54c1.28,1.07,3.18-0.25,2.36-1.82c-1.64-3.11-3.72-5.96-6.17-8.48
			c-0.61,0.79-1.21,1.57-1.82,2.36c4.68,2.98,7.76,8.03,12.88,10.4c2.93,1.35,6.15,1.67,9.35,1.64c2.85-0.03,5.72-0.19,8.56-0.48
			c5.18-0.54,10.53-1.66,14.71-4.94c4.74-3.72,6.16-9.44,7.31-15.07c1.08-5.3,2.7-12.47,8.65-14.26c1.59-0.48,1.33-2.98-0.4-2.95
			c-17.16,0.33-34.17,5.29-48.83,14.23c-4.16,2.54-8.11,5.41-11.85,8.54C403.55,211.03,405.68,213.14,407.15,211.91L407.15,211.91z"
			/>
	</g>
</g>
<g>
	<g>
		<path d="M409.43,414.32c1.19,19.73-0.55,39.58-5.07,58.81c-4.52,19.24-11.77,37.81-21.52,55c-5.5,9.68-11.78,18.92-18.81,27.55
			c-1.21,1.49,0.9,3.62,2.12,2.12c12.69-15.59,22.99-32.98,30.68-51.55c7.69-18.57,12.69-38.22,14.82-58.2
			c1.2-11.2,1.46-22.49,0.78-33.73C412.31,412.4,409.31,412.39,409.43,414.32L409.43,414.32z"/>
	</g>
</g>
<g>
	<g>
		<path d="M531.49,357.5c-4.39,5.42-4.2,12.49-3.29,19.04c1.05,7.58,2.52,15.12,4.05,22.62c3.08,15.16,6.84,30.18,11.27,44.99
			c4.45,14.89,9.57,29.58,15.35,44.01c5.74,14.34,12.1,28.44,19.09,42.21c7.03,13.86,14.69,27.4,22.95,40.56
			c1.02,1.63,2.06,3.25,3.1,4.87c1.04,1.62,3.64,0.12,2.59-1.51c-8.25-12.82-15.92-26.01-22.99-39.52
			c-7.05-13.45-13.51-27.22-19.33-41.25c-5.84-14.08-11.07-28.42-15.65-42.96c-4.58-14.54-8.52-29.28-11.79-44.17
			c-1.64-7.44-3.11-14.93-4.41-22.44c-1.11-6.43-2.96-13.7-1.01-20.14c0.46-1.52,1.18-2.96,2.19-4.2
			C534.81,358.13,532.7,356,531.49,357.5L531.49,357.5z"/>
	</g>
</g>
<g>
	<g>
		<path d="M359.02,563.11c-17.48,5.55-34.52,12.56-50.73,21.14c-16.16,8.55-31.5,18.7-45.5,30.46
			c-14.09,11.84-26.76,25.34-37.41,40.35c-10.64,15-19.26,31.46-25.35,48.82c-6.05,17.26-9.53,35.47-9.85,53.77
			c-0.04,2.28-0.03,4.55,0.03,6.83c0.05,1.93,3.05,1.93,3,0c-0.45-18.06,2.25-36.07,7.58-53.32c5.38-17.39,13.38-33.92,23.42-49.1
			c9.99-15.1,22.05-28.74,35.56-40.78c13.46-12,28.32-22.36,44.04-31.18c15.84-8.89,32.54-16.2,49.73-22.04
			c2.09-0.71,4.18-1.4,6.28-2.06C361.66,565.42,360.87,562.52,359.02,563.11L359.02,563.11z"/>
	</g>
</g>
<g>
	<g>
		<path d="M600.82,576.16c14.55,4.7,28.43,11.31,41.3,19.56c12.87,8.25,24.68,18.13,35.08,29.33c10.8,11.64,20.05,24.71,27.31,38.84
			c7.9,15.39,13.4,32.16,15.24,49.4c1.96,18.45-0.04,37.11-4.41,55.08c-0.54,2.23-1.12,4.45-1.73,6.66
			c-0.51,1.86,2.38,2.66,2.89,0.8c5.01-18.15,7.85-37.08,6.79-55.93c-1-17.81-5.71-35.16-13.17-51.33
			c-6.89-14.96-16.06-28.85-26.86-41.27c-10.2-11.72-21.91-22.12-34.71-30.92c-12.8-8.8-26.73-15.96-41.35-21.22
			c-1.84-0.66-3.7-1.29-5.56-1.9C599.78,572.67,598.99,575.56,600.82,576.16L600.82,576.16z"/>
	</g>
</g>
<g>
	<g>
		<path d="M261.76,388.53c-7.94-0.9-15.96,2.92-20.5,9.44c-0.64,0.92,0.21,2.32,1.3,2.26c3.5-0.2,6.79-1.69,9.16-4.29
			c-0.79-0.61-1.57-1.21-2.36-1.82c-1.57,3.11-3.14,6.21-4.71,9.32c-0.87,1.72,1.72,3.24,2.59,1.51c1.57-3.11,3.14-6.21,4.71-9.32
			c0.73-1.45-1.15-3.14-2.36-1.82c-1.83,2.01-4.31,3.26-7.04,3.41c0.43,0.75,0.86,1.5,1.3,2.26c3.97-5.7,11.05-8.73,17.9-7.95
			c0.81,0.09,1.5-0.75,1.5-1.5C263.26,389.14,262.56,388.62,261.76,388.53L261.76,388.53z"/>
	</g>
</g>
<g>
	<g>
		<path d="M370.79,224.73c1.04-0.54,1.42,0.05,1.38,0.59c-0.06,0.11-0.12,0.22-0.18,0.32c-0.27,0.24-0.24,0.44,0.1,0.59
			c0.22,0.42,0.73,0.86,1.03,1.24c0.7,0.89,1.38,1.79,2.06,2.69c1.34,1.79,2.64,3.6,3.91,5.44c2.54,3.67,4.95,7.44,7.21,11.29
			c4.46,7.59,8.39,15.5,11.72,23.65c6.73,16.48,11.15,33.94,12.94,51.66c1.01,9.94,1.2,19.94,0.57,29.91c-0.12,1.93,2.88,1.92,3,0
			c1.25-19.86-0.79-39.9-5.85-59.13c-5.07-19.22-13.16-37.69-23.97-54.37c-3.03-4.67-6.26-9.23-9.73-13.59
			c-0.76-0.96-1.62-1.88-2.87-2.13c-1.1-0.22-2.23,0.22-2.7,1.27c-0.85,1.89,0.85,4.22,2.89,3.16
			C374.02,226.43,372.51,223.84,370.79,224.73L370.79,224.73z"/>
	</g>
</g>
<g>
	<g>
		<path d="M619.74,506.91c22.23-24.04,37.82-53.38,47.24-84.63c9.62-31.88,13.06-65.52,11.88-98.73
			c-0.59-16.5-2.19-33.06-5.28-49.28c-3.01-15.86-7.65-31.61-15.35-45.87c-3.75-6.95-8.27-13.51-13.58-19.36
			c-5.62-6.2-12.22-11.12-18.97-15.99c-7.72-5.57-14.51-11.51-19.62-19.64c-4.84-7.71-8.49-16.12-12.71-24.17
			c-17.04-32.45-38.91-62.38-64.63-88.48c-3.19-3.24-6.45-6.42-9.75-9.54c-0.61,0.79-1.21,1.57-1.82,2.36
			c38.8,21.47,76.85,44.28,114.06,68.41c10.49,6.8,20.92,13.71,31.28,20.72c1.4,0.95,3.12-1.24,1.82-2.36
			c-1.64-1.4,0.67-4.62,1.37-5.99c1.24-2.4,2.47-4.79,3.71-7.19c2.4-4.64,4.79-9.28,7.19-13.93c4.79-9.28,9.58-18.57,14.37-27.85
			c9.58-18.57,19.17-37.14,28.75-55.7c5.41-10.48,10.82-20.96,16.23-31.45c0.88-1.71-1.7-3.23-2.59-1.51
			c-20.4,39.53-40.8,79.07-61.21,118.6c-2.78,5.39-5.56,10.78-8.35,16.17c-1.54,2.98-5.04,8.03-1.6,10.98
			c0.61-0.79,1.21-1.57,1.82-2.36c-36.73-24.85-74.32-48.42-112.69-70.65c-10.82-6.27-21.71-12.43-32.65-18.48
			c-1.46-0.81-3.09,1.16-1.82,2.36c26.37,24.92,49.06,53.62,67.13,85.07c4.52,7.86,8.64,15.91,12.69,24.02
			c3.89,7.79,8.03,15.6,14.02,22.01c5.89,6.29,13.28,10.86,20.1,16.03c6.68,5.06,12.6,11.03,17.54,17.79
			c19.14,26.22,24.51,60.49,26.82,92.11c2.39,32.82,0.37,66.14-7.51,98.14c-7.79,31.63-21.51,62.05-42.23,87.35
			c-2.51,3.06-5.11,6.04-7.79,8.94C616.31,506.21,618.43,508.34,619.74,506.91L619.74,506.91z"/>
	</g>
</g>
<g>
	<g>
		<path d="M287.51,550.2c0.2-0.28,0.14,0.01-0.12-0.1c-0.16-0.07-0.35-0.09-0.51-0.15c-0.34-0.13-0.64-0.32-0.94-0.51
			c-0.82-0.52-1.62-1.07-2.41-1.62c-1.59-1.11-3.13-2.29-4.62-3.53c-3.03-2.52-5.86-5.28-8.46-8.24
			c-5.17-5.87-9.42-12.55-12.58-19.7c-1.78-4.02-3.16-8.21-4.19-12.48c-0.45-1.88-3.35-1.08-2.89,0.8
			c4.11,16.96,14.07,32.44,27.81,43.2c1.88,1.47,3.81,2.89,5.83,4.16c1.85,1.17,4.23,1.68,5.68-0.32
			C291.24,550.15,288.63,548.65,287.51,550.2L287.51,550.2z"/>
	</g>
</g>
<g>
	<g>
		<path d="M227.24,351.25c-1.09,0.49-1.52-2.56-1.56-3.13c-0.15-2.21,0.75-4.5,1.3-6.61c1.33-5.06,2.83-10.08,4.48-15.05
			c3.35-10.05,7.37-19.88,12.02-29.4c4.67-9.56,9.97-18.81,15.86-27.68c6.02-9.06,12.74-17.61,18.95-26.53
			c6.1-8.77,12.28-18.16,15.09-28.59c1.42-5.27,1.67-10.62,1-16.03c-0.67-5.35-1.84-10.63-2.49-15.99
			c-2.3-19.02-0.75-38.44,4.31-56.91c5.06-18.47,13.61-35.99,25.27-51.19c1.46-1.9,2.98-3.76,4.53-5.58
			c1.25-1.46-0.87-3.59-2.12-2.12c-12.84,15.07-22.53,32.66-28.61,51.49c-6.07,18.82-8.54,38.87-6.96,58.6
			c0.4,5.03,1.1,10.01,1.98,14.97c1.03,5.87,2.04,11.81,1.1,17.76c-1.74,10.98-8.05,20.86-14.2,29.89
			c-6.42,9.44-13.53,18.38-19.88,27.86c-6.07,9.05-11.52,18.51-16.31,28.29c-4.77,9.75-8.91,19.81-12.35,30.1
			c-1.74,5.2-3.31,10.47-4.69,15.78c-0.96,3.7-2.53,8.61,0.46,11.88c1.2,1.31,2.77,1.46,4.33,0.75
			C230.51,353.05,228.98,350.47,227.24,351.25L227.24,351.25z"/>
	</g>
</g>
<g>
	<g>
		<path d="M316.42,72.75c-20.66,12.19-38.94,27.95-55.77,44.96c-17.03,17.22-32.7,35.72-48.8,53.8c-2.02,2.27-4.05,4.54-6.09,6.79
			c-1.99,2.2-3.9,4.61-6.12,6.59c-1.07,0.96-2.3,1.67-3.79,1.5c-1.68-0.19-3.25-1.13-4.72-1.89c-2.67-1.38-5.29-2.86-7.86-4.43
			c-10.23-6.25-19.53-13.88-28.24-22.09c-17.52-16.52-32.6-35.38-49.71-52.3C88.71,89.23,69.82,74.09,47.4,66.54
			c-2.73-0.92-5.49-1.71-8.29-2.39c-1.88-0.46-2.68,2.44-0.8,2.89c23.3,5.65,43.08,20.01,60.24,36.25
			c17.64,16.7,32.85,35.74,50.16,52.76c8.57,8.42,17.66,16.36,27.62,23.11c4.97,3.36,10.19,6.65,15.67,9.11
			c2.83,1.27,5.76,1.66,8.44-0.19c2.39-1.65,4.26-4.14,6.19-6.27c16.44-18.1,32.15-36.87,49-54.6
			c16.63-17.5,34.47-34.06,54.78-47.22c2.47-1.6,4.98-3.15,7.52-4.65C319.6,74.36,318.09,71.76,316.42,72.75L316.42,72.75z"/>
	</g>
</g>
<g>
	<g>
		<path d="M193.92,765.93c18.74,28.09,44.66,51.25,74.78,66.55c33.32,16.93,70.66,23.21,107.69,24.87
			c19.26,0.87,38.54,0.54,57.8-0.08c19.2-0.62,38.4-1.42,57.55-2.88c37.71-2.87,75.57-8.35,111.42-20.8
			c18.14-6.3,35.38-14.59,52.08-24.03c17.07-9.64,33.63-20.15,50.84-29.55c4.23-2.31,8.49-4.54,12.81-6.69
			c1.75-0.87,0.22-3.36-1.51-2.59c-1.75,0.77-3.49,1.55-5.24,2.32c-1.76,0.78-0.24,3.37,1.51,2.59c1.75-0.77,3.49-1.55,5.24-2.32
			c-0.5-0.86-1.01-1.73-1.51-2.59c-34.43,17.16-65.64,40.37-101.43,54.87c-34.89,14.14-72.25,20.95-109.59,24.54
			c-18.67,1.8-37.41,2.81-56.15,3.56c-18.91,0.75-37.83,1.38-56.76,1.14c-37.48-0.47-75.59-4.49-110.48-19.04
			c-31.1-12.97-58.73-34.36-79.17-61.15c-2.54-3.33-4.96-6.74-7.28-10.22C195.45,762.81,192.85,764.31,193.92,765.93L193.92,765.93z
			"/>
	</g>
</g>
<g>
	<g>
		<path d="M49.82,343.25c-0.43,33.52-0.85,67.04-1.28,100.56s-0.85,67.04-1.28,100.56c-0.21,16.83-0.43,33.67-0.64,50.5
			c-0.11,8.34-0.21,16.69-0.32,25.03c-0.05,4.24-0.11,8.49-0.16,12.73c-0.04,2.98-0.37,6.21,0.64,9.08c0.77,2.2,2.47,4.08,4.95,4.17
			c2.86,0.11,5.04-2.13,6.6-4.26c4.64-6.31,8.72-13.15,12.88-19.78c8.44-13.46,16.45-27.19,23.96-41.19
			c14.15-26.37,27.06-55.57,25.83-86.14c-0.14-3.57-0.51-7.11-1.03-10.64c-0.25-1.71-2.93-1.24-2.95,0.4
			c-0.39,33.57-1.95,67.12-4.72,100.57c-2.77,33.49-6.88,66.8-11.87,100.03c-2.79,18.57-5.34,37.34-3.59,56.13
			c0.12,1.32,2.1,2.24,2.8,0.76c7.63-16.37,17.83-31.4,30.25-44.51c-0.84-0.49-1.67-0.97-2.51-1.46
			c-2.68,17.27-4.58,34.68-5.46,52.14c-0.64,12.71-0.09,27.2,9.54,36.74c1.37,1.36,3.5-0.76,2.12-2.12
			c-9.38-9.29-9.27-23.75-8.59-36.03c0.93-16.72,2.7-33.38,5.28-49.93c0.21-1.36-1.38-2.65-2.51-1.46
			c-12.59,13.29-22.98,28.53-30.72,45.12c0.93,0.25,1.86,0.5,2.8,0.76c-1.57-16.92,0.33-33.85,2.78-50.6
			c2.41-16.47,4.88-32.91,6.91-49.43c4.08-33.17,6.99-66.49,8.71-99.87c0.98-18.93,1.57-37.88,1.79-56.83
			c-0.98,0.13-1.96,0.27-2.95,0.4c4.36,29.61-6.37,58.8-19.49,84.85c-6.76,13.42-14.21,26.51-21.96,39.39
			c-3.96,6.59-8.02,13.11-12.19,19.56c-2.12,3.29-4.27,6.56-6.44,9.81c-1.32,1.98-5.13,7.26-7.18,3.03
			c-1.34-2.77-0.71-6.59-0.67-9.54c0.05-4.1,0.1-8.2,0.16-12.3c0.1-7.9,0.2-15.81,0.3-23.71c0.2-16.1,0.41-32.2,0.61-48.3
			c0.41-32.06,0.81-64.11,1.22-96.17s0.81-64.11,1.22-96.17c0.05-3.95,0.1-7.9,0.15-11.86C52.84,341.31,49.84,341.31,49.82,343.25
			L49.82,343.25z"/>
	</g>
</g>
<g>
	<g>
		<path d="M877.37,311.81c-1.49-5.4,0.1-11.07,4.15-14.93c-0.85-0.35-1.71-0.71-2.56-1.06c1.51,33.78,2.89,67.56,4.12,101.35
			c1.23,33.94,2.32,67.9,3.26,101.85c0.53,19.07,1.01,38.14,1.45,57.21c0.75-0.43,1.5-0.86,2.26-1.3
			c-22.33-15.59-36.9-39.28-48.93-63.19c-3.48-6.92-6.78-13.92-10.06-20.93c-0.55-1.17-2.47-0.85-2.74,0.36
			c-3.31,14.54-1.32,29.37,0.18,44.01c1.55,15.24,2.67,30.53,3.34,45.84c1.35,30.61,0.95,61.31-1.21,91.87
			c-1.22,17.29-3,34.54-5.35,51.71c0.73-0.3,1.47-0.6,2.2-0.9c-8.77-6.11-12.63-16.63-16.57-26.1c-3.84-9.23-8.09-18.63-16.53-24.53
			c-0.91-0.64-2.33,0.21-2.26,1.3c2.3,36.23,4.6,72.47,6.91,108.7c0.12,1.92,3.12,1.93,3,0c-2.3-36.23-4.6-72.47-6.91-108.7
			c-0.75,0.43-1.5,0.86-2.26,1.3c8.75,6.12,12.61,16.65,16.56,26.12c3.84,9.22,8.09,18.62,16.55,24.51c0.72,0.5,2.08,0.03,2.2-0.9
			c8.26-60.57,9.67-122.03,4.03-182.91c-1.55-16.68-4.78-33.93-1-50.54c-0.91,0.12-1.83,0.24-2.74,0.36
			c11.61,24.82,23.68,50.3,42.79,70.35c5.25,5.51,11.03,10.49,17.27,14.85c0.94,0.66,2.28-0.22,2.26-1.3
			c-0.78-33.8-1.69-67.6-2.76-101.4c-1.07-33.95-2.28-67.9-3.64-101.84c-0.76-19.06-1.57-38.12-2.43-57.18
			c-0.06-1.3-1.6-1.98-2.56-1.06c-4.81,4.59-6.68,11.45-4.92,17.85C874.99,314.47,877.89,313.68,877.37,311.81L877.37,311.81z"/>
	</g>
</g>
<g>
	<g>
		<path class="st0" d="M434.33,188.81c0.76,8.36,1.52,16.71,2.27,25.07c0.98-0.13,1.96-0.27,2.95-0.4
			c-1.53-6.45-3.05-12.9-4.58-19.35c-0.42-1.79-2.75-1.15-2.95,0.4c-1.14,8.82-0.63,17.77,1.44,26.42c0.4,1.67,2.91,1.27,2.95-0.4
			c0.15-7.73-0.53-15.45-1.99-23.05c-0.32-1.65-3.04-1.29-2.95,0.4c0.32,5.98,1.33,11.91,3.04,17.65c0.49,1.63,2.9,1.31,2.95-0.4
			c0.19-7.53-1.52-14.97-4.92-21.69c-0.54-1.07-2.57-0.93-2.74,0.36c-1.17,8.67,0.15,17.37,3.89,25.28c0.64,1.35,2.86,0.68,2.8-0.76
			c-0.35-7.72-1.65-15.36-3.91-22.75c-0.56-1.85-3.35-1.08-2.89,0.8c1.56,6.43,3.82,12.66,6.73,18.61c0.73,1.5,2.63,0.54,2.8-0.76
			c1.16-8.96-0.22-18.04-3.82-26.32c-0.62-1.42-2.79-0.62-2.8,0.76c-0.02,10.69,2.58,21.24,7.53,30.71
			c0.85,1.62,2.99,0.41,2.74-1.16c-1.47-9.19-3.53-18.27-6.18-27.19c-0.46-1.55-3.13-1.35-2.95,0.4c1.09,10.6,3.81,20.9,8.1,30.66
			c0.7,1.58,3.17,0.44,2.74-1.16c-2.45-9.1-4.91-18.21-7.36-27.31c-0.52-1.92-3.15-1.05-2.89,0.8c1.17,8.53,2.33,17.05,3.5,25.58
			c0.96-0.27,1.93-0.53,2.89-0.8c-2.16-7.49-4.32-14.98-6.48-22.47c-0.54-1.87-3.28-1.08-2.89,0.8c1.92,9.2,3.84,18.41,5.75,27.61
			c0.34,1.63,3.1,1.3,2.95-0.4c-0.75-8.11-1.5-16.21-2.25-24.32c-0.98,0.13-1.96,0.27-2.95,0.4c1.32,5.16,2.06,10.42,2.2,15.74
			c0.05,1.93,3.05,1.93,3,0c-0.15-5.58-0.92-11.13-2.31-16.54c-0.41-1.6-3.11-1.32-2.95,0.4c0.75,8.11,1.5,16.21,2.25,24.32
			c0.98-0.13,1.96-0.27,2.95-0.4c-1.92-9.2-3.84-18.41-5.75-27.61c-0.96,0.27-1.93,0.53-2.89,0.8c2.16,7.49,4.32,14.98,6.48,22.47
			c0.55,1.91,3.15,1.06,2.89-0.8c-1.17-8.53-2.33-17.05-3.5-25.58c-0.96,0.27-1.93,0.53-2.89,0.8c2.45,9.1,4.91,18.21,7.36,27.31
			c0.91-0.39,1.83-0.77,2.74-1.16c-4.06-9.23-6.66-19.11-7.69-29.14c-0.98,0.13-1.96,0.27-2.95,0.4c2.65,8.92,4.72,18,6.18,27.19
			c0.91-0.39,1.83-0.77,2.74-1.16c-4.71-9-7.14-19.04-7.12-29.19c-0.93,0.25-1.86,0.5-2.8,0.76c3.38,7.79,4.5,16.4,3.41,24.8
			c0.93-0.25,1.86-0.5,2.8-0.76c-2.79-5.71-4.93-11.71-6.43-17.89c-0.96,0.27-1.93,0.53-2.89,0.8c2.18,7.14,3.46,14.5,3.8,21.96
			c0.93-0.25,1.86-0.5,2.8-0.76c-3.36-7.1-4.64-15.17-3.59-22.97c-0.91,0.12-1.83,0.24-2.74,0.36c3.17,6.25,4.69,13.17,4.51,20.17
			c0.98-0.13,1.96-0.27,2.95-0.4c-1.64-5.49-2.63-11.13-2.93-16.85c-0.98,0.13-1.96,0.27-2.95,0.4c1.41,7.33,2.03,14.78,1.89,22.25
			c0.98-0.13,1.96-0.27,2.95-0.4c-2.01-8.4-2.44-17.06-1.33-25.62c-0.98,0.13-1.96,0.27-2.95,0.4c1.53,6.45,3.05,12.9,4.58,19.35
			c0.38,1.61,3.1,1.31,2.95-0.4c-0.76-8.36-1.52-16.71-2.27-25.07C437.16,186.91,434.16,186.89,434.33,188.81L434.33,188.81z"/>
	</g>
</g>
<g>
	<g>
		<path class="st0" d="M27.37,152.07c4.35,40.72,9.21,81.38,14.61,121.97c1.51,11.35,3.06,22.69,4.65,34.03
			c0.23,1.67,3.03,1.28,2.95-0.4c-1.04-20.63-2.01-41.79,4.5-61.7c-0.96,0-1.93,0-2.89,0c5.17,27.79,9.42,55.75,12.7,83.83
			c3.28,28.08,5.6,56.27,6.97,84.5c0.77,15.85,1.23,31.71,1.39,47.58c0.02,1.95,2.87,1.91,3,0c1.43-21.58,2.98-43.47,10.63-63.91
			c-0.96,0-1.93,0-2.89,0c5.08,33.9,4.81,68.32,3.38,102.48c-0.4,9.6-0.9,19.19-1.39,28.78c-0.09,1.66,2.68,2.09,2.95,0.4
			c2.44-15.6,7.69-30.61,15.57-44.3c-0.91-0.12-1.83-0.24-2.74-0.36c5.81,24.31,6.86,49.65,3.03,74.35c-0.29,1.89,2.6,2.7,2.89,0.8
			c3.92-25.26,2.91-51.08-3.03-75.94c-0.3-1.26-2.11-1.45-2.74-0.36c-7.99,13.9-13.4,29.18-15.87,45.02
			c0.98,0.13,1.96,0.27,2.95,0.4c1.78-34.45,3.56-69.04,1.06-103.5c-0.69-9.56-1.74-19.08-3.16-28.56c-0.24-1.62-2.44-1.22-2.89,0
			c-7.73,20.67-9.28,42.88-10.73,64.7c1,0,2,0,3,0c-0.3-28.4-1.55-56.79-3.78-85.11c-2.21-28.18-5.39-56.29-9.5-84.26
			c-2.33-15.83-4.96-31.62-7.89-47.35c-0.29-1.55-2.47-1.3-2.89,0c-6.6,20.16-5.66,41.61-4.61,62.49c0.98-0.13,1.96-0.27,2.95-0.4
			c-5.65-40.29-10.78-80.64-15.38-121.06c-1.3-11.38-2.55-22.76-3.77-34.14C30.17,150.17,27.17,150.14,27.37,152.07L27.37,152.07z"
			/>
	</g>
</g>
<g>
	<g>
		<path class="st0" d="M19.6,344.66c7.42,39.87,13.52,79.98,18.23,120.26c4.69,40.12,8.03,80.39,10.01,120.74
			c1.11,22.67,1.79,45.37,2.04,68.07c0.02,1.93,2.99,1.93,3,0c0.24-33.07,3.57-66.05,9.97-98.49c-0.73,0.3-1.47,0.6-2.2,0.9
			c7.66,4.17,9.75,13.5,11.13,21.43c1.9,10.93,3.58,21.91,5.29,32.88c3.52,22.57,6.84,45.18,9.95,67.81
			c1.8,13.09,3.52,26.2,5.18,39.31c0.17,1.38,1.97,2.16,2.8,0.76c5.15-8.76,6.04-19.04,7.43-28.89c1.36-9.56,3.26-19.72,11.18-26.12
			c-0.84-0.22-1.67-0.44-2.51-0.66c8.13,24.09,10.44,49.95,6.56,75.09c-0.23,1.51,2.01,2.86,2.74,1.16
			c2.45-5.75,4.9-11.49,7.35-17.24c-0.56,0.23-1.13,0.46-1.69,0.69c5.19,1.61,7.8,6.96,9.66,11.66c2.51,6.33,4.63,12.84,6.51,19.38
			c3.8,13.26,6.38,26.86,7.73,40.59c0.15,1.56,2.57,2.18,2.95,0.4c2.43-11.68,1.43-23.81-3.02-34.89c-0.71-1.77-3.61-1-2.89,0.8
			c4.25,10.58,5.35,22.12,3.02,33.29c0.98,0.13,1.96,0.27,2.95,0.4c-1.46-14.84-4.28-29.52-8.55-43.82
			c-1.98-6.62-4.1-13.32-6.92-19.64c-2.17-4.85-5.34-9.44-10.63-11.08c-0.57-0.18-1.44,0.1-1.69,0.69
			c-2.45,5.75-4.9,11.49-7.35,17.24c0.91,0.39,1.83,0.77,2.74,1.16c3.96-25.68,1.75-52.06-6.56-76.69
			c-0.38-1.14-1.62-1.38-2.51-0.66c-16.56,13.39-9.11,38.67-19.08,55.62c0.93,0.25,1.86,0.5,2.8,0.76
			c-5.95-47.03-12.41-94.09-20.52-140.8c-1.52-8.74-4.12-18.66-12.51-23.22c-0.79-0.43-2.01-0.09-2.2,0.9
			c-6.46,32.7-9.84,65.96-10.08,99.29c1,0,2,0,3,0c-0.46-40.68-2.29-81.35-5.5-121.91c-3.19-40.25-7.73-80.4-13.61-120.34
			c-3.33-22.61-7.09-45.15-11.28-67.61C22.14,341.97,19.25,342.77,19.6,344.66L19.6,344.66z"/>
	</g>
</g>
<g>
	<g>
		<path class="st0" d="M63.32,249.9c0.63,19.48,5.27,38.74,13.56,56.38c2.37,5.04,5.04,9.94,7.98,14.67c0.55,0.88,2.09,1.07,2.59,0
			c5.19-11.13,10.37-22.26,15.56-33.4c-0.93-0.25-1.86-0.5-2.8-0.76c0.67,9.26,1.39,18.56,3.22,27.68
			c1.77,8.78,4.61,17.81,9.66,25.3c2.27,3.37,5.18,6.47,9.04,7.97c3.46,1.35,7.37,0.93,10.56-0.92c6.75-3.89,9.88-11.97,12.58-18.84
			c4.34-11.04,8.3-22.23,11.86-33.54c-0.96,0-1.93,0-2.89,0c3.96,12.23,4.47,25.16,6.61,37.75c1.04,6.11,2.5,12.15,4.93,17.87
			c1.86,4.39,5.97,14.16,12.23,9.86c5.61-3.86,9.36-10.85,10.66-17.4c0.2-1.03-0.69-2.26-1.85-1.85c-2.17,0.79-3.9,2.12-5.19,4.03
			c-1.08,1.6,1.51,3.11,2.59,1.51c0.83-1.23,2-2.15,3.4-2.65c-0.62-0.62-1.23-1.23-1.85-1.85c-1.13,5.68-4,10.91-8.32,14.8
			c-0.92,0.82-2.08,1.87-3.37,1.25c-1.21-0.59-1.97-1.98-2.63-3.09c-1.45-2.43-2.67-4.99-3.68-7.64
			c-4.14-10.88-4.99-22.65-6.57-34.08c-0.9-6.53-2.04-13.04-4.07-19.32c-0.46-1.42-2.44-1.43-2.89,0
			c-2.96,9.38-6.18,18.67-9.67,27.86c-2.69,7.08-5.13,15.33-10.76,20.72c-2.28,2.18-5.2,3.63-8.43,3.26
			c-3.81-0.43-6.87-3.33-9.04-6.29c-4.93-6.75-7.71-15.13-9.53-23.21c-2.15-9.59-2.9-19.42-3.61-29.2c-0.1-1.34-2.11-2.22-2.8-0.76
			c-5.19,11.13-10.37,22.26-15.56,33.4c0.86,0,1.73,0,2.59,0c-10.1-16.21-16.81-34.42-19.67-53.3c-0.81-5.37-1.29-10.8-1.46-16.23
			C66.26,247.97,63.26,247.96,63.32,249.9L63.32,249.9z"/>
	</g>
</g>
<g>
	<g>
		<path class="st0" d="M119.02,418.79c0.9,17.82,2.38,35.6,4.45,53.32c2.06,17.69,4.7,35.31,7.9,52.83
			c1.82,9.94,3.83,19.84,6.01,29.7c0.27,1.22,2.18,1.51,2.74,0.36c4.81-9.82,10.87-18.98,18.08-27.21c-0.71,0-1.41,0-2.12,0
			c7,6.67,10.51,15.79,13.14,24.89c2.73,9.42,4.66,19.13,8.62,28.14c2.16,4.9,4.99,9.49,8.71,13.37c0.47,0.49,1.24,0.55,1.82,0.23
			c10.85-6.01,11.02-20.2,18.02-29.22c1.78-2.29,4.07-3.98,6.89-4.73c-0.63-0.48-1.27-0.96-1.9-1.45
			c2.15,16.58,3.57,33.24,4.27,49.95c0.07,1.66,2.48,2.07,2.95,0.4c1.04-3.73-0.52-7.69-3.75-9.78c-1.62-1.05-3.13,1.54-1.51,2.59
			c2.11,1.37,3.04,3.99,2.37,6.39c0.98,0.13,1.96,0.27,2.95,0.4c-0.7-16.7-2.12-33.37-4.27-49.95c-0.12-0.95-0.86-1.72-1.9-1.45
			c-5.71,1.51-9.27,6.17-11.74,11.26c-2.62,5.4-4.29,11.26-7.41,16.41c-1.63,2.69-3.69,5.05-6.46,6.58
			c0.61,0.08,1.21,0.16,1.82,0.23c-6.72-7-10.01-16.29-12.58-25.46c-2.64-9.4-4.62-19.08-8.79-27.97
			c-2.26-4.82-5.25-9.29-9.11-12.97c-0.56-0.53-1.58-0.62-2.12,0c-7.38,8.42-13.63,17.76-18.55,27.81c0.91,0.12,1.83,0.24,2.74,0.36
			c-3.84-17.34-7.13-34.8-9.83-52.35c-2.7-17.5-4.82-35.08-6.36-52.72c-0.87-9.98-1.56-19.98-2.07-29.98
			C121.93,416.87,118.92,416.85,119.02,418.79L119.02,418.79z"/>
	</g>
</g>
<g>
	<g>
		<path class="st0" d="M166.29,625.94c-6.82,12.09-9.11,26.38-6.48,40c0.37,1.89,3.26,1.09,2.89-0.8
			c-2.47-12.81-0.23-26.33,6.18-37.69C169.83,625.77,167.24,624.26,166.29,625.94L166.29,625.94z"/>
	</g>
</g>
<g>
	<g>
		<path class="st0" d="M800.47,36.6c1.63,18.74,4.77,37.35,9.44,55.58c4.67,18.23,10.86,36.04,18.44,53.26
			c4.11,9.32,9.08,19.73,6.3,30.13c0.84-0.22,1.67-0.44,2.51-0.66c-13.79-11.18-27.59-22.37-41.38-33.55
			c-3.45-2.8-6.9-5.59-10.35-8.39c-3.13-2.54-6.18-5.32-9.6-7.47c-2.92-1.83-6.24-2.93-9.7-2.36c-2.54,0.42-4.83,1.81-6.56,3.68
			c-3.86,4.16-5.45,10.11-6.03,15.62c-0.8,7.61-0.21,15.53,0.6,23.11c1.71,16.11,5.62,31.86,9.65,47.52
			c4.55,17.67,9.32,35.4,11.25,53.59c0.85-0.35,1.71-0.71,2.56-1.06c-6.59-8.17-13.19-16.35-19.78-24.52
			c-3.08-3.82-5.99-7.95-9.41-11.47c-2.59-2.66-5.93-5.26-9.73-5.71c-3.88-0.46-6.84,2.06-8.18,5.53c-0.82,2.12-1.23,4.42-1.7,6.63
			c-0.49,2.33-0.92,4.68-1.28,7.04c-1.48,9.57-1.94,19.27-1.32,28.94c0.69,10.89,2.71,21.68,6.01,32.08
			c0.96-0.27,1.93-0.53,2.89-0.8c-0.77-1.97-2.6-2.99-4.7-2.82c-1.97,0.16-3.92,1.43-4.24,3.49c-0.29,1.89,2.6,2.7,2.89,0.8
			c0.19-1.22,2.61-2.06,3.15-0.67c0.69,1.75,3.49,1.08,2.89-0.8c-5.51-17.3-7.35-35.65-5.43-53.71c0.48-4.53,1.22-9.03,2.18-13.48
			c0.68-3.13,1.23-8.66,5.23-9.26c3.35-0.5,6.74,2.38,8.92,4.56c3.19,3.19,5.86,7.01,8.69,10.52c6.93,8.59,13.86,17.18,20.79,25.76
			c0.79,0.98,2.69,0.2,2.56-1.06c-3.32-31.3-14.79-60.93-19.68-91.93c-1.21-7.66-1.97-15.39-2.07-23.15
			c-0.08-6.1,0.01-12.39,2.53-18.07c2.17-4.9,6.4-8.88,12.1-7.07c3.62,1.15,6.6,3.96,9.49,6.3c3.31,2.68,6.62,5.37,9.93,8.05
			c14.9,12.08,29.79,24.16,44.69,36.24c0.84,0.69,2.19,0.52,2.51-0.66c2.44-9.11-0.55-18.27-4.08-26.65
			c-3.71-8.79-7.55-17.48-10.81-26.45c-6.47-17.79-11.44-36.12-14.87-54.74c-1.95-10.57-3.38-21.22-4.31-31.92
			C803.3,34.69,800.3,34.67,800.47,36.6L800.47,36.6z"/>
	</g>
</g>
<g>
	<g>
		<path class="st0" d="M842.35,220.2c-6.64,21-9.67,42.87-11.98,64.71c-2.41,22.8-4.52,45.64-6.75,68.47
			c-1.26,12.88-2.51,25.76-3.76,38.64c0.98-0.13,1.96-0.27,2.95-0.4c-4.06-10.8-8.13-21.6-12.19-32.4c-2.03-5.4-4.06-10.8-6.09-16.2
			c-0.99-2.63-1.93-5.28-2.97-7.89c-0.73-1.83-1.64-3.6-3.4-4.62c-2.94-1.69-5.96-0.03-7.84,2.38c-2.66,3.4-3.24,7.45-3.8,11.6
			c-1.47,10.82-2.82,21.65-4.11,32.49c-5.26,44.19-9.49,88.54-16.96,132.43c-4.16,24.46-9.35,48.75-16.21,72.6
			c0.91-0.12,1.83-0.24,2.74-0.36c-8.23-11.42-9.81-26.94-3.77-39.7c-0.91-0.12-1.83-0.24-2.74-0.36
			c7.86,28.02,8.07,57.87,0.6,85.99c0.96,0,1.93,0,2.89,0c-5.21-22.02-12.85-43.41-22.75-63.76c-0.56-1.15-2.46-0.86-2.74,0.36
			c-6.94,30.46-0.38,61.62,6.16,91.54c0.41,1.89,3.3,1.09,2.89-0.8c-6.42-29.36-12.97-60.03-6.16-89.94
			c-0.91,0.12-1.83,0.24-2.74,0.36c9.79,20.12,17.3,41.27,22.45,63.04c0.34,1.45,2.52,1.4,2.89,0c7.6-28.63,7.4-59.06-0.6-87.59
			c-0.33-1.16-2.17-1.57-2.74-0.36c-6.48,13.69-5.12,30.41,3.77,42.73c0.73,1.02,2.36,0.96,2.74-0.36
			c11.63-40.46,18.39-82.09,23.69-123.8c2.65-20.86,4.95-41.76,7.34-62.65c1.19-10.44,2.41-20.89,3.7-31.32
			c0.65-5.21,1.31-10.42,2-15.63c0.59-4.47,0.67-9.45,3-13.45c0.85-1.47,2.49-3.72,4.48-3.02c2.38,0.84,3.17,5.16,3.95,7.23
			c2.18,5.8,4.37,11.61,6.55,17.41c4.37,11.61,8.74,23.22,13.1,34.83c0.61,1.61,2.78,1.31,2.95-0.4c2.22-22.9,4.45-45.8,6.7-68.7
			c2.17-22.1,3.87-44.32,7.38-66.26c1.95-12.19,4.57-24.28,8.3-36.06C845.82,219.15,842.93,218.36,842.35,220.2L842.35,220.2z"/>
	</g>
</g>
<g>
	<g>
		<path class="st0" d="M675.77,512.06c0.82,10.21,3.86,19.98,6.95,29.69c3.23,10.15,6.47,20.31,9.7,30.46
			c6.47,20.31,12.94,40.61,19.4,60.92c1.82,5.71,3.64,11.42,5.46,17.13c0.43,1.35,0.86,2.7,1.29,4.05c0.42,1.32,1.03,1.95,2.47,1.92
			c2.3-0.06,3.94-1.85,4.22-4.03c0.24-1.91-2.76-1.89-3,0c-0.09,0.73-0.98,1.14-1.62,0.98c0.35,0.35,0.7,0.7,1.05,1.05
			c-5.91-18.56-11.82-37.12-17.74-55.69c-5.91-18.56-11.82-37.12-17.74-55.69c-3.2-10.06-6.59-20.21-7.45-30.79
			C678.61,510.15,675.61,510.14,675.77,512.06L675.77,512.06z"/>
	</g>
</g>
<g>
	<g>
		<path class="st0" d="M771.65,629.79c1.93,25.45,3.85,50.91,5.78,76.36c0.54,7.2,1.09,14.4,1.63,21.6c0.15,1.94,2.83,1.92,3,0
			c1.9-21.35,3.81-42.78,8.58-63.71c1.35-5.91,2.93-11.76,4.78-17.54c-0.98-0.13-1.96-0.27-2.95-0.4
			c1.11,18.41,2.23,36.81,3.34,55.22c0.31,5.19,0.63,10.37,0.94,15.56c0.06,0.96,0.91,1.73,1.9,1.45c7.3-2.07,7.83-11.28,8.56-17.47
			c1.18-10.01,2.35-20.01,3.53-30.02c2.34-19.93,4.69-39.86,7.03-59.79c1.32-11.26,2.65-22.52,3.97-33.77c-1,0-2,0-3,0
			c0.28,23.63,0.57,47.27,0.85,70.9c0.08,6.7,0.16,13.41,0.24,20.11c0.01,1.2,1.25,1.78,2.26,1.3c9.28-4.45,10.21-16.42,11.16-25.37
			c1.46-13.67,2.92-27.35,4.38-41.02c2.9-27.18,5.81-54.36,8.71-81.53c1.64-15.34,3.28-30.68,4.92-46.02c-1,0-2,0-3,0
			c1.43,28.89,2.94,58.39,12.15,86.04c2.53,7.62,5.66,15.04,9.44,22.12c0.91,1.7,3.5,0.19,2.59-1.51
			c-13.48-25.26-17.72-54.04-19.77-82.25c-0.59-8.13-1.01-16.26-1.41-24.4c-0.1-1.96-2.8-1.89-3,0
			c-2.86,26.76-5.72,53.52-8.58,80.28c-2.86,26.76-5.72,53.52-8.58,80.28c-0.67,6.28-0.97,12.76-2.48,18.92
			c-1.19,4.83-3.35,9.61-8.05,11.86c0.75,0.43,1.5,0.86,2.26,1.3c-0.28-23.63-0.57-47.27-0.85-70.9c-0.08-6.7-0.16-13.41-0.24-20.11
			c-0.02-1.98-2.78-1.87-3,0c-2.28,19.35-4.55,38.69-6.83,58.04c-2.27,19.26-4.53,38.53-6.8,57.79c-0.56,4.79-0.83,9.73-1.85,14.45
			c-0.69,3.15-1.97,6.91-5.41,7.89c0.63,0.48,1.27,0.96,1.9,1.45c-1.11-18.41-2.23-36.81-3.34-55.22
			c-0.31-5.19-0.63-10.37-0.94-15.56c-0.1-1.68-2.42-2.05-2.95-0.4c-6.61,20.63-9.6,42.16-11.76,63.65
			c-0.61,6.13-1.16,12.27-1.71,18.4c1,0,2,0,3,0c-1.93-25.45-3.85-50.91-5.78-76.36c-0.54-7.2-1.09-14.4-1.63-21.6
			C774.51,627.87,771.51,627.86,771.65,629.79L771.65,629.79z"/>
	</g>
</g>
<g>
	<g>
		<path class="st0" d="M880.66,394.31c1.61,24.87,3.23,49.73,4.84,74.6c0.45,6.96,0.9,13.93,1.36,20.89c0.12,1.91,3.02,1.95,3,0
			c-0.21-18.1-0.42-36.2-0.62-54.31c-0.06-5.15-0.12-10.3-0.18-15.44c-0.01-0.74-0.68-1.6-1.5-1.5c-4.35,0.51-5.19,5.74-6.21,9.19
			c-1.43,4.8-2.73,9.64-3.9,14.51c-2.33,9.72-4.14,19.55-5.45,29.46c-0.75,5.67-1.32,11.37-1.73,17.08c-0.14,1.93,2.86,1.92,3,0
			c1.33-18.58,4.5-37.01,9.46-54.97c0.68-2.45,1.39-4.89,2.13-7.33c0.38-1.25,0.98-4.73,2.7-4.93c-0.5-0.5-1-1-1.5-1.5
			c0.21,18.1,0.42,36.2,0.62,54.31c0.06,5.15,0.12,10.3,0.18,15.44c1,0,2,0,3,0c-1.61-24.87-3.23-49.73-4.84-74.6
			c-0.45-6.96-0.9-13.93-1.36-20.89C883.54,392.39,880.54,392.38,880.66,394.31L880.66,394.31z"/>
	</g>
</g>
<g>
	<g>
		<path class="st0" d="M265.08,42.37c-15.35,0.48-25.23,14.71-31.9,26.88c-8.57,15.64-15.31,32.3-20.06,49.49
			c-2.69,9.74-4.73,19.65-6.12,29.65c-0.11,0.81,0.2,1.6,1.05,1.85c0.7,0.2,1.73-0.25,1.85-1.05c2.37-17.1,6.66-33.92,12.79-50.06
			c3.08-8.12,6.64-16.06,10.64-23.78c3.49-6.73,7.19-13.46,12.22-19.18c5.06-5.76,11.61-10.55,19.53-10.8
			C267,45.31,267.01,42.31,265.08,42.37L265.08,42.37z"/>
	</g>
</g>
<g>
	<g>
		<path class="st0" d="M246.6,51.3c-10.66,9.66-20.37,20.31-29.05,31.78c-8.64,11.41-16.23,23.62-22.62,36.44
			c-3.62,7.27-6.85,14.73-9.7,22.34c-0.6,1.6,1.95,2.64,2.74,1.16c10.09-19.04,20.18-38.07,30.28-57.11
			c2.84-5.37,5.69-10.73,8.53-16.1c0.75-1.42-0.72-2.63-2.05-2.05c-8.03,3.45-12.64,11.44-16.8,18.67
			c-4.92,8.56-9.79,17.18-13.52,26.33c-2.14,5.24-3.86,10.65-4.95,16.21c-0.32,1.64,1.81,2.65,2.74,1.16
			c12.06-19.23,24.19-38.57,39.12-55.75c4.21-4.84,8.63-9.49,13.3-13.9c1.41-1.33-0.72-3.45-2.12-2.12
			c-16.67,15.75-30.03,34.55-42.42,53.74c-3.53,5.47-7,10.99-10.46,16.51c0.91,0.39,1.83,0.77,2.74,1.16
			c1.87-9.5,5.59-18.46,10-27.04c2.2-4.28,4.55-8.47,6.94-12.64c2.12-3.7,4.19-7.45,6.69-10.92c2.69-3.73,6-6.99,10.27-8.83
			c-0.68-0.68-1.37-1.37-2.05-2.05c-10.09,19.04-20.18,38.07-30.28,57.11c-2.84,5.37-5.69,10.73-8.53,16.1
			c0.91,0.39,1.83,0.77,2.74,1.16c4.97-13.29,11.19-26.1,18.55-38.23c7.32-12.08,15.74-23.48,25.15-34
			c5.33-5.96,10.97-11.63,16.89-17C250.16,52.12,248.03,50,246.6,51.3L246.6,51.3z"/>
	</g>
</g>
<g>
	<g>
		<path class="st0" d="M656.99,89.71c-2.87,0.97-5.73,1.94-8.6,2.92c0.62,0.35,1.23,0.7,1.85,1.05c-1.46-10.57-2.71-21.2-4.53-31.71
			c-1.56-8.98-3.75-17.98-7.92-26.14c-2.31-4.53-5.27-8.71-8.88-12.3c-1.02-1.02-2.99,0-2.51,1.46
			c6.86,20.76,13.41,41.62,19.67,62.57c1.79,5.99,3.55,11.98,5.28,17.98c0.96-0.27,1.93-0.53,2.89-0.8
			c-5.18-12.61-5.77-26.35-7.69-39.68c-0.96-6.68-2.27-13.34-4.64-19.67c-2.35-6.28-5.57-12.18-9.24-17.77
			c-4.19-6.37-8.92-12.36-13.64-18.33c-0.71,0.71-1.41,1.41-2.12,2.12c17.65,14.37,33.87,31.55,43.37,52.49
			c2.63,5.8,4.66,11.86,6.05,18.07c0.91-0.39,1.83-0.77,2.74-1.16c-8.1-17.37-18.44-33.65-30.71-48.38
			c-3.44-4.13-7.03-8.13-10.76-12c-1.37-1.42-3.3,0.65-2.12,2.12c14.27,17.78,24.6,38.29,33.91,58.99
			c2.65,5.89,5.22,11.81,7.78,17.74c0.86-0.5,1.73-1.01,2.59-1.51c-7.19-16.16-13.29-32.79-18.26-49.77c-0.42-1.45-2.45-1.4-2.89,0
			c-4.9,15.43-2.63,31.79-0.36,47.47c0.96-0.27,1.93-0.53,2.89-0.8c-1.45-8.33-3.2-16.61-5.26-24.81c-0.32-1.27-2.09-1.44-2.74-0.36
			c-2.73,4.55-4.39,9.57-5,14.83c-0.22,1.91,2.78,1.9,3,0c0.54-4.72,2.14-9.25,4.59-13.32c-0.91-0.12-1.83-0.24-2.74-0.36
			c2.06,8.2,3.81,16.48,5.26,24.81c0.33,1.92,3.16,1.08,2.89-0.8c-2.19-15.14-4.37-30.98,0.36-45.88c-0.96,0-1.93,0-2.89,0
			c5.05,17.22,11.27,34.09,18.56,50.48c0.79,1.77,3.35,0.23,2.59-1.51c-9.12-21.05-18.32-42.24-30.8-61.57
			c-3.52-5.44-7.3-10.71-11.36-15.77c-0.71,0.71-1.41,1.41-2.12,2.12c13.12,13.62,24.46,28.9,33.67,45.41
			c2.62,4.69,5.06,9.48,7.33,14.35c0.75,1.6,3.1,0.43,2.74-1.16c-5.11-22.84-18.96-42.56-35.43-58.74
			c-4.7-4.62-9.65-8.98-14.76-13.15c-1.51-1.23-3.32,0.61-2.12,2.12c8.24,10.41,16.72,21.09,21.65,33.55
			c4.91,12.41,5.56,25.84,7.42,38.91c1.05,7.39,2.54,14.74,5.39,21.67c0.71,1.73,3.45,1.11,2.89-0.8
			c-6.08-21-12.46-41.91-19.14-62.73c-1.91-5.95-3.85-11.89-5.8-17.82c-0.84,0.49-1.67,0.97-2.51,1.46
			c12.99,12.94,15.51,32.33,17.9,49.64c0.88,6.4,1.77,12.8,2.65,19.19c0.11,0.77,1.15,1.28,1.85,1.05c2.87-0.97,5.73-1.94,8.6-2.92
			C659.6,91.98,658.82,89.09,656.99,89.71L656.99,89.71z"/>
	</g>
</g>
<g>
	<g>
		<path class="st0" d="M207.59,111.04c-6,12.65-12.79,24.92-20.35,36.71c0.91,0.39,1.83,0.77,2.74,1.16
			c4.39-13.26,9.52-26.27,15.38-38.95c-0.91-0.39-1.83-0.77-2.74-1.16c-6.03,17.36-9.89,35.42-11.57,53.72
			c-0.14,1.52,2.1,1.99,2.8,0.76c1.48-2.63,1.02-6.16-1.36-8.12c-2.44-2-5.89-1.76-8.27,0.18c-0.98,0.8-0.25,2.12,0.66,2.51
			c8.34,3.51,17.15,5.7,26.16,6.58c1.93,0.19,1.9-2.8,0-3c-5.35-0.57-10.7,0.47-15.5,2.88c-1.73,0.87-0.21,3.46,1.51,2.59
			c4.34-2.18,9.17-2.99,13.99-2.47c0-1,0-2,0-3c-8.73-0.85-17.28-3.07-25.36-6.47c0.22,0.84,0.44,1.67,0.66,2.51
			c2.89-2.35,6.68,1.18,4.92,4.31c0.93,0.25,1.86,0.5,2.8,0.76c1.65-18.03,5.53-35.82,11.46-52.92c0.55-1.59-2.03-2.71-2.74-1.16
			c-5.97,12.92-11.21,26.16-15.68,39.67c-0.55,1.67,1.85,2.54,2.74,1.16c7.55-11.79,14.35-24.05,20.35-36.71
			C211,110.82,208.42,109.29,207.59,111.04L207.59,111.04z"/>
	</g>
</g>
<g>
	<g>
		<path class="st0" d="M657.41,76.08c-5.33,3.74-4.45,10.81-3.67,16.43c0.86,6.15,2.27,13.2-1.62,18.63c0.93,0.25,1.86,0.5,2.8,0.76
			c-1.31-13.76-2.63-27.52-3.94-41.28c-0.15-1.54-2.65-2.2-2.95-0.4c-1.7,10.38-1.73,20.9-0.08,31.29c0.24,1.52,2.52,1.33,2.89,0
			c1.82-6.58,4.65-12.78,8.39-18.48c-0.91-0.12-1.83-0.24-2.74-0.36c1.79,5.22,3.17,10.56,4.09,16c0.45,2.66,0.79,5.35,1,8.04
			c0.07,0.97,0.28,2.42-0.33,3.27c-0.29,0.41-1.05,0.8-1.32,0.25c-0.86-1.73-3.45-0.21-2.59,1.51c1.15,2.32,4.51,2.16,6.06,0.36
			c2.06-2.38,1.14-6.34,0.81-9.16c-0.86-7.18-2.47-14.24-4.82-21.08c-0.43-1.24-2.01-1.46-2.74-0.36c-3.88,5.9-6.81,12.39-8.7,19.2
			c0.96,0,1.93,0,2.89,0c-1.56-9.82-1.53-19.88,0.08-29.69c-0.98-0.13-1.96-0.27-2.95-0.4c1.31,13.76,2.63,27.52,3.94,41.28
			c0.14,1.51,1.91,2,2.8,0.76c3.72-5.19,3.19-11.74,2.38-17.73c-0.4-2.99-1.01-6.01-0.98-9.03c0.02-2.6,0.54-5.63,2.82-7.22
			C660.49,77.57,659,74.97,657.41,76.08L657.41,76.08z"/>
	</g>
</g>
<g>
	<g>
		<path class="st0" d="M205.8,153.86c-1.69,0.4-3.38,0.8-5.07,1.19c0.62,0.62,1.23,1.23,1.85,1.85c2-11.98,4-23.97,6-35.95
			c0.31-1.87-2.31-2.68-2.89-0.8c-4.37,14.21-4.96,29.17-5.5,43.92c1,0,2,0,3,0c0.02-18.36,2.87-36.65,8.47-54.14
			c1.58-4.93,3.38-9.79,5.38-14.57c-0.96-0.27-1.93-0.53-2.89-0.8c-7.62,18.31-13.53,37.31-17.64,56.71
			c-0.4,1.88,2.41,2.68,2.89,0.8c4.07-16.01,8.14-32.01,12.21-48.02c0.4-1.58-2.05-2.77-2.74-1.16
			c-6.54,15.3-10.58,31.52-11.94,48.11c-0.16,1.92,2.84,1.91,3,0c1.32-16.01,5.22-31.82,11.53-46.6c-0.91-0.39-1.83-0.77-2.74-1.16
			c-4.07,16.01-8.14,32.01-12.21,48.02c0.96,0.27,1.93,0.53,2.89,0.8c4.11-19.4,10.02-38.4,17.64-56.71
			c0.31-0.75-0.34-1.64-1.05-1.85c-0.86-0.25-1.53,0.3-1.85,1.05c-7.15,17.11-11.62,35.29-13.26,53.76
			c-0.46,5.24-0.69,10.49-0.7,15.75c0,1.94,2.93,1.93,3,0c0.53-14.5,1.1-29.16,5.39-43.12c-0.96-0.27-1.93-0.53-2.89-0.8
			c-2,11.98-4,23.97-6,35.95c-0.19,1.13,0.65,2.13,1.85,1.85c1.69-0.4,3.38-0.8,5.07-1.19C208.48,156.31,207.68,153.42,205.8,153.86
			L205.8,153.86z"/>
	</g>
</g>
<g>
	<g>
		<path class="st0" d="M34.75,83.63c4.25,30.58,8.79,61.12,13.61,91.62c1.35,8.53,2.72,17.05,4.11,25.57c0.26,1.61,2.43,1.23,2.89,0
			c6.58-17.54,10.46-36.04,11.54-54.74c-0.98,0.13-1.96,0.27-2.95,0.4c3.78,16.31,8.41,32.43,13.88,48.25
			c5.44,15.73,11.69,31.18,18.73,46.26c3.99,8.56,8.24,17,12.74,25.32c0.61,1.12,2.44,0.88,2.74-0.36
			c3.34-13.71,6.68-27.42,10.02-41.12c-0.98-0.13-1.96-0.27-2.95-0.4c1.03,15.73,4.05,31.33,9.06,46.28
			c1.43,4.26,3.02,8.45,4.75,12.59c0.44,1.06,1.59,1.47,2.51,0.66c6.67-5.84,11.77-13.24,14.98-21.5c-0.91,0.12-1.83,0.24-2.74,0.36
			c3.92,7.98,6.6,16.5,8.04,25.27c0.31,1.9,3.2,1.09,2.89-0.8c-1.48-9.03-4.31-17.78-8.34-25.99c-0.63-1.28-2.32-0.73-2.74,0.36
			c-3.02,7.77-7.94,14.69-14.21,20.18c0.84,0.22,1.67,0.44,2.51,0.66c-6.01-14.35-10.19-29.45-12.36-44.85
			c-0.62-4.39-1.05-8.8-1.34-13.22c-0.11-1.61-2.53-2.13-2.95-0.4c-3.34,13.71-6.68,27.42-10.02,41.12
			c0.91-0.12,1.83-0.24,2.74-0.36c-7.9-14.62-15.05-29.64-21.38-45c-6.32-15.34-11.83-31.01-16.52-46.93
			c-2.65-8.99-5.03-18.06-7.14-27.19c-0.4-1.71-2.85-1.23-2.95,0.4c-1.06,18.44-4.94,36.65-11.43,53.94c0.96,0,1.93,0,2.89,0
			c-4.97-30.47-9.67-60.99-14.08-91.54c-1.23-8.54-2.44-17.09-3.63-25.64C37.38,80.93,34.49,81.74,34.75,83.63L34.75,83.63z"/>
	</g>
</g>
<g>
	<g>
		<path class="st0" d="M179.51,230.59c-3.26,0.3-4.9,3.11-5.49,6.08c-0.78,3.89-0.57,8.13-0.46,12.08
			c0.24,8.78,1.48,17.56,3.69,26.06c1.25,4.82,2.83,9.55,4.69,14.17c0.71,1.77,3.62,1,2.89-0.8c-5.96-14.75-8.81-30.66-8.24-46.56
			c0.06-1.76,0.08-3.54,0.59-5.25c0.33-1.13,0.98-2.66,2.33-2.78C181.42,233.41,181.44,230.41,179.51,230.59L179.51,230.59z"/>
	</g>
</g>
<g>
	<g>
		<path class="st0" d="M765.02,48.05c-1.38-3.23-5.15-0.24-5.94,1.79c-0.72,1.85-1.02,3.99-1.42,5.93
			c-0.41,1.98-0.77,3.98-1.09,5.98c-1.3,8.15-1.93,16.39-2.25,24.64c-0.64,16.71-0.06,33.48-1.55,50.16
			c-0.37,4.15-0.85,8.3-1.57,12.41c-0.46,2.63-1.2,5.86-3.35,7.66c-2.97,2.48-6.54-0.67-8.96-2.44c-3.55-2.58-7.09-5.16-10.64-7.74
			c-1.76-1.28-3.49-2.63-5.3-3.84c-1.46-0.98-3.18-1.72-4.97-1.35c-2.96,0.62-4.16,3.83-4.59,6.49c-1.33,8.23-1.85,16.68-2.09,25.01
			c-0.48,17,0.92,34.06,4.15,50.75c0.4,2.04,0.82,4.08,1.27,6.11c0.96-0.27,1.93-0.53,2.89-0.8c-1.81-5.24-3.62-10.49-5.43-15.73
			c-0.57-1.66-2.76-1.26-2.95,0.4c-1.17,10.24-1.45,20.57-0.84,30.86c0.11,1.92,3.11,1.93,3,0c-0.61-10.29-0.32-20.61,0.84-30.86
			c-0.98,0.13-1.96,0.27-2.95,0.4c1.81,5.24,3.62,10.49,5.43,15.73c0.63,1.82,3.31,1.1,2.89-0.8c-3.53-15.96-5.34-32.28-5.41-48.63
			c-0.03-8.16,0.37-16.32,1.21-24.43c0.2-1.99,0.44-3.97,0.69-5.96c0.18-1.38,0.35-2.86,0.97-4.13c0.7-1.42,1.81-1.85,3.27-1.13
			c1.71,0.84,3.24,2.21,4.78,3.33c3.41,2.48,6.82,4.97,10.24,7.45c2.88,2.1,6.04,5.1,9.81,5.23c6.64,0.22,8.47-7.81,9.25-12.87
			c2.43-15.84,2.36-31.88,2.57-47.86c0.21-15.94,0.72-32.03,4.52-47.59c0.17-0.68,0.26-1.36,0.7-1.92c0.13-0.16,0.5-0.38,0.57-0.54
			c0.01-0.02,0.16-0.07,0.16-0.09c-0.01,0.19-0.86-0.87-0.54-0.1C763.18,51.33,765.77,49.81,765.02,48.05L765.02,48.05z"/>
	</g>
</g>
<g>
	<g>
		<path class="st0" d="M801.7,247.2c-6.39,3.28-8.48,10.73-9.72,17.26c-1.66,8.71-3.35,17.37-5.6,25.96
			c-4.63,17.65-10.89,34.88-18.69,51.38c-4.37,9.25-9.23,18.27-14.54,27.02c0.86,0,1.73,0,2.59,0
			c-7.33-10.4-10.54-22.83-13.63-34.99c-0.34-1.35-2.65-1.5-2.89,0c-3.35,21.07-6.69,42.14-10.02,63.22
			c-3.33,21.08-6.64,42.15-9.94,63.23c-1.86,11.86-3.71,23.73-5.56,35.59c0.98,0.13,1.96,0.27,2.95,0.4
			c-0.48-3.75-0.2-7.45,0.89-11.06c-0.98-0.13-1.96-0.27-2.95-0.4c0.25,12.27-0.81,24.52-3.19,36.55c0.98,0.13,1.96,0.27,2.95,0.4
			c0.13-4.36-0.77-8.58-2.58-12.53c-0.48-1.06-2.06-0.89-2.59,0c-3.19,5.34-5.73,11.04-7.59,16.98c-0.58,1.85,2.32,2.64,2.89,0.8
			c1.79-5.7,4.23-11.13,7.29-16.26c-0.86,0-1.73,0-2.59,0c1.58,3.47,2.28,7.21,2.17,11.02c-0.05,1.66,2.61,2.08,2.95,0.4
			c2.44-12.29,3.56-24.82,3.3-37.35c-0.03-1.69-2.46-2.03-2.95-0.4c-1.16,3.85-1.51,7.87-0.99,11.86c0.19,1.49,2.66,2.24,2.95,0.4
			c3.29-21.08,6.58-42.16,9.9-63.24c3.31-21.08,6.64-42.15,9.97-63.23c1.88-11.86,3.76-23.72,5.65-35.58c-0.96,0-1.93,0-2.89,0
			c3.14,12.39,6.46,25.11,13.93,35.71c0.64,0.91,1.97,1.02,2.59,0c9.25-15.27,17.12-31.35,23.51-48.02
			c6.41-16.7,11.31-33.97,14.61-51.54c1.35-7.17,2-17.21,9.35-20.98C804.94,248.91,803.42,246.32,801.7,247.2L801.7,247.2z"/>
	</g>
</g>
<g>
	<g>
		<path class="st0" d="M765.28,679.32c-4.61,2.78-5.93,8.2-6.58,13.18c-0.91,7.01-1.51,14.08-2.26,21.11
			c0.75-0.43,1.5-0.86,2.26-1.3c-6.61-4.16-11.14-11.01-12.52-18.68c-0.32-1.75-2.84-1.2-2.95,0.4c-0.51,7.88-1.01,15.77-1.52,23.65
			c-0.12,1.93,2.88,1.92,3,0c0.51-7.88,1.01-15.77,1.52-23.65c-0.98,0.13-1.96,0.27-2.95,0.4c1.52,8.42,6.67,15.92,13.9,20.47
			c1.05,0.66,2.14-0.23,2.26-1.3c0.7-6.57,1.37-13.15,2.09-19.72c0.47-4.26,1.25-9.57,5.26-11.99
			C768.44,680.91,766.94,678.32,765.28,679.32L765.28,679.32z"/>
	</g>
</g>
<g>
	<g>
		<path class="st0" d="M439.39,417.95c3.59,19.21,5.5,38.69,6.13,58.21c0.62,19.38,0,38.78-1.36,58.11
			c-1.38,19.6-3.53,39.14-5.94,58.64c-2.43,19.6-5.13,39.16-7.64,58.75c-2.5,19.54-4.81,39.1-6.44,58.73
			c-0.2,2.4-0.39,4.79-0.57,7.19c-0.14,1.93,2.86,1.92,3,0c1.47-19.63,3.65-39.19,6.1-58.72c2.46-19.69,5.18-39.35,7.68-59.04
			c2.47-19.51,4.73-39.05,6.29-58.66c1.55-19.53,2.4-39.13,2.04-58.72c-0.36-19.39-1.93-38.77-5.09-57.92
			c-0.41-2.46-0.84-4.92-1.3-7.37C441.92,415.26,439.03,416.06,439.39,417.95L439.39,417.95z"/>
	</g>
</g>
<g>
	<g>
		<path class="st0" d="M365.22,657.92c21.58-2.32,43.22-4.04,64.9-5.12c21.68-1.09,43.38-1.55,65.09-1.39
			c12.21,0.09,24.42,0.38,36.63,0.86c1.93,0.08,1.93-2.92,0-3c-21.69-0.86-43.4-1.1-65.1-0.71c-21.7,0.39-43.39,1.39-65.03,3.02
			c-12.18,0.92-24.34,2.03-36.49,3.34C363.32,655.13,363.3,658.13,365.22,657.92L365.22,657.92z"/>
	</g>
</g>
<g>
	<g>
		<path class="st0" d="M431.05,503.59c10.23,14.91,20.45,29.83,30.68,44.74c1.09,1.58,3.69,0.08,2.59-1.51
			c-10.23-14.91-20.45-29.83-30.68-44.74C432.55,500.5,429.95,502,431.05,503.59L431.05,503.59z"/>
	</g>
</g>
<g>
	<g>
		<path class="st0" d="M863.85,103.78c-3.52-1.93-7.03-3.86-10.55-5.79c-1.34-0.74-2.74,0.73-2.05,2.05
			c8.05,15.42,14.51,31.7,19.09,48.49c3.95,14.47,6.6,31.4-1.07,45.15c-0.91,1.63-2.02,3.41-3.73,4.3
			c-2.03,1.05-3.74-0.34-5.22-1.67c-3.88-3.46-7.74-6.94-11.6-10.41c-1.25-1.12-3.2,0.29-2.36,1.82
			c9.26,16.79,18.79,34.13,21.73,53.34c2.3,15.09-0.58,31.14-9.73,43.58c-4.78,6.5-11.38,11.6-19.12,14.02
			c-1.84,0.57-1.05,3.47,0.8,2.89c14.93-4.67,24.95-18,29.28-32.57c5.19-17.46,1.64-35.67-5.09-52.2
			c-4.3-10.57-9.76-20.6-15.27-30.58c-0.79,0.61-1.57,1.21-2.36,1.82c3.63,3.25,7.25,6.51,10.88,9.76c1.53,1.37,3.12,2.95,5.18,3.44
			c1.88,0.45,3.77-0.1,5.29-1.23c3.11-2.31,4.87-6.25,6.23-9.76c1.47-3.78,2.3-7.76,2.7-11.79c0.83-8.37-0.34-16.87-2.21-25.03
			c-2.02-8.82-4.83-17.49-7.97-25.96c-3.67-9.9-7.97-19.56-12.86-28.92c-0.68,0.68-1.37,1.37-2.05,2.05
			c3.52,1.93,7.03,3.86,10.55,5.79C864.03,107.3,865.55,104.71,863.85,103.78L863.85,103.78z"/>
	</g>
</g>
<g>
	<g>
		<path class="st0" d="M753.15,371.9c-0.99-3.37-5.68-2.93-7.14-0.19c-0.99,1.86-0.74,3.98-0.51,5.99c0.29,2.56,0.59,5.13,0.88,7.69
			c1.14,10.01,2.29,20.02,3.43,30.03c1.14,10.01,2.29,20.02,3.43,30.03c0.28,2.48,0.57,4.96,0.85,7.45
			c0.26,2.26,0.55,4.54,0.41,6.83c-0.21,3.54-2.21,8.05-6.36,8.01c-2.38-0.03-4.59-1.29-6.87-1.81c-1.97-0.45-4.02-0.41-5.96,0.16
			c-3.89,1.14-7.03,4.07-8.35,7.9c-0.63,1.83,2.26,2.61,2.89,0.8c1.06-3.05,3.8-5.27,6.92-5.97c3.79-0.85,7.08,1.58,10.76,1.89
			c3.53,0.3,6.63-1.83,8.32-4.82c2.04-3.6,1.81-7.84,1.37-11.81c-2.08-18.76-4.29-37.52-6.43-56.27c-0.61-5.3-1.21-10.59-1.82-15.89
			c-0.27-2.35-0.78-4.81-0.7-7.18c0.03-0.75,0.16-1.81,0.94-2.15c0.25-0.11,0.93-0.24,1.04,0.11
			C750.8,374.54,753.69,373.75,753.15,371.9L753.15,371.9z"/>
	</g>
</g>
<g>
	<g>
		<path class="st0" d="M846.79,383.82c-3.81-1.25-6.94,1.64-8.54,4.83c-2.1,4.17-2.26,9.16-2.4,13.74
			c-0.33,11.02,1.56,21.96,3.31,32.8c3.13,19.34,5.87,40.8-5.6,58.07c-5.6,8.43-13.72,14.92-22.6,19.64
			c-1.71,0.91-0.19,3.5,1.51,2.59c7.78-4.14,14.98-9.61,20.55-16.49c5.91-7.3,9.6-15.9,11.03-25.17
			c3.17-20.59-3.38-40.73-4.93-61.13c-0.46-6.06-0.55-12.28,0.4-18.3c0.46-2.88,2.49-9.02,6.47-7.71
			C847.83,387.32,848.62,384.43,846.79,383.82L846.79,383.82z"/>
	</g>
</g>
<g>
	<g>
		<path class="st0" d="M133.41,430.53c-1.63-4.23-3.25-8.46-4.88-12.68c-0.68-1.77-3.39-1.11-2.89,0.8
			c3.6,13.79,8.57,27.21,14.8,40.02c3.15,6.48,6.64,12.8,10.43,18.93c3.56,5.75,7.31,11.69,12.67,15.95
			c5.24,4.17,12.02,6.94,15.78,12.71c1.05,1.61,3.65,0.11,2.59-1.51c-3.34-5.13-8.7-8.07-13.63-11.43
			c-5.73-3.9-9.69-9.16-13.38-14.95c-7.6-11.92-14.01-24.6-19.08-37.8c-2.85-7.43-5.28-15.02-7.29-22.72
			c-0.96,0.27-1.93,0.53-2.89,0.8c1.63,4.23,3.25,8.46,4.88,12.68C131.2,433.11,134.1,432.34,133.41,430.53L133.41,430.53z"/>
	</g>
</g>
<g>
	<g>
		<path class="st0" d="M244.73,511.47c-3.38,0.46-4.3,4.44-4.21,7.3c0.13,4.18,0.99,8.48,1.89,12.55
			c1.88,8.48,4.93,16.72,9.01,24.39c2.34,4.41,5.04,8.63,8.05,12.62c1.15,1.52,3.75,0.03,2.59-1.51
			c-9.61-12.74-15.92-27.86-18.08-43.68c-0.27-1.99-1.69-8.33,1.55-8.78c0.81-0.11,1.23-1.14,1.05-1.85
			C246.34,511.65,245.53,511.36,244.73,511.47L244.73,511.47z"/>
	</g>
</g>
<g>
	<g>
		<path class="st0" d="M223.26,495.95c-2.56,3.24-6.38,5.37-10.51,5.74c-4.47,0.4-8.31-1.35-11.87-3.92
			c-3.62-2.61-6.91-5.79-11.01-7.66c-1.79-0.82-4.2-1.44-5.85,0.03c-1.83,1.63-0.97,4.27-0.59,6.33c1.18,6.46,2.37,12.92,3.55,19.38
			c0.35,1.9,3.24,1.09,2.89-0.8c-0.99-5.41-1.98-10.82-2.97-16.23c-0.24-1.29-0.47-2.58-0.71-3.88c-0.13-0.72-0.8-2.43,0.2-2.68
			c0.78-0.2,1.82,0.35,2.49,0.68c0.97,0.48,1.9,1.03,2.81,1.63c3.58,2.37,6.67,5.41,10.4,7.56c3.61,2.09,7.62,3.01,11.78,2.42
			c4.48-0.63,8.71-2.92,11.53-6.48C226.57,496.57,224.46,494.44,223.26,495.95L223.26,495.95z"/>
	</g>
</g>
</svg>
